<svg id="Apple" xmlns="http://www.w3.org/2000/svg" width="58" height="58" viewBox="0 0 58 58">
  <g id="Rectangle_852" data-name="Rectangle 852" fill="#fff" stroke="#cbcbcb" stroke-width="1">
    <rect width="58" height="58" rx="29" stroke="none"/>
    <rect x="0.5" y="0.5" width="57" height="57" rx="28.5" fill="none"/>
  </g>
  <path id="apple_1_" data-name="apple (1)" d="M33.349,17.452a6.478,6.478,0,0,0,3.933,5.929,16.037,16.037,0,0,1-2.028,4.168c-1.221,1.785-2.489,3.564-4.486,3.6-1.962.036-2.593-1.164-4.837-1.164s-2.944,1.127-4.8,1.2c-1.928.073-3.4-1.931-4.627-3.709-2.516-3.638-4.44-10.281-1.857-14.765A7.174,7.174,0,0,1,20.71,9.039C22.6,9,24.39,10.312,25.547,10.312s3.327-1.575,5.61-1.344a6.845,6.845,0,0,1,5.36,2.907,6.629,6.629,0,0,0-3.167,5.576M29.662,6.562a6.456,6.456,0,0,0,1.524-4.679A6.568,6.568,0,0,0,26.869,4.1a6.133,6.133,0,0,0-1.555,4.533,5.435,5.435,0,0,0,4.347-2.075" transform="translate(3.579 12.117)"/>
</svg>
