<svg id="google" xmlns="http://www.w3.org/2000/svg" width="58" height="58" viewBox="0 0 58 58">
  <g id="Rectangle_851" data-name="Rectangle 851" fill="#fff" stroke="#cbcbcb" stroke-width="1">
    <rect width="58" height="58" rx="29" stroke="none"/>
    <rect x="0.5" y="0.5" width="57" height="57" rx="28.5" fill="none"/>
  </g>
  <g id="d56a83daff855ba754852b04aa0f3926" transform="translate(15 14)">
    <path id="Path_1637" data-name="Path 1637" d="M144.619,109.757a12.559,12.559,0,0,0-.309-3H130.55V112.2h8.077a7.162,7.162,0,0,1-3,4.755l-.027.182,4.351,3.37.3.03a14.329,14.329,0,0,0,4.364-10.78" transform="translate(-115.895 -94.776)" fill="#4285f4"/>
    <path id="Path_1638" data-name="Path 1638" d="M27.017,168.127a13.968,13.968,0,0,0,9.705-3.55L32.1,160.994a8.674,8.674,0,0,1-5.08,1.466,8.823,8.823,0,0,1-8.337-6.09l-.172.015-4.524,3.5-.059.164a14.645,14.645,0,0,0,13.092,8.077" transform="translate(-12.362 -138.816)" fill="#34a853"/>
    <path id="Path_1639" data-name="Path 1639" d="M6.318,80.86a9.022,9.022,0,0,1-.488-2.9,9.481,9.481,0,0,1,.472-2.9l-.008-.194-4.58-3.557-.15.071a14.624,14.624,0,0,0,0,13.157l4.755-3.68" transform="translate(0 -63.307)" fill="#fbbc05"/>
    <path id="Path_1640" data-name="Path 1640" d="M27.017,5.667a8.122,8.122,0,0,1,5.667,2.182L36.82,3.81A14.08,14.08,0,0,0,27.017,0,14.645,14.645,0,0,0,13.925,8.077l4.739,3.68a8.859,8.859,0,0,1,8.354-6.09" transform="translate(-12.362)" fill="#eb4335"/>
  </g>
</svg>
