<?xml version="1.0" encoding="utf-8"?>
<!-- Generator: Adobe Illustrator 27.1.1, SVG Export Plug-In . SVG Version: 6.00 Build 0)  -->
<svg version="1.1" id="Layer_1" xmlns="http://www.w3.org/2000/svg" xmlns:xlink="http://www.w3.org/1999/xlink" x="0px" y="0px"
	 viewBox="0 0 179.4 35" style="enable-background:new 0 0 179.4 35;" xml:space="preserve">
<style type="text/css">
	.st0{fill:#FFFFFF;}
</style>
<g>
	<g id="Group_1" transform="translate(-25 -79.913)">
		<path id="Path_2" class="st0" d="M75.8,108.6V89.1h-6.2v-2.5h15v2.5h-6.2v19.5H75.8z"/>
		<path id="Path_3" class="st0" d="M92.3,85.7l10,22.8h-2.8l-2.8-6.7H88l-2.8,6.7h-2.8L92.3,85.7z M92.3,91.5l-3.5,8.1h7L92.3,91.5z
			"/>
		<path id="Path_4" class="st0" d="M116.1,97.2h9.1v0.7c0,3.5-1,6.2-2.9,8.2c-2,2-4.6,3-8,3c-1,0-2-0.1-2.9-0.3
			c-2.9-0.6-5.3-2.5-6.8-5.1c-1-1.8-1.5-3.9-1.5-5.9c0-1.7,0.3-3.4,0.9-5c0.6-1.5,1.5-2.8,2.6-3.9c1-0.9,2.2-1.7,3.4-2.1
			c1.4-0.5,2.9-0.7,4.4-0.7c1.9,0,3.8,0.3,5.5,1.1c1.6,0.8,2.9,2,3.9,3.5l-2.2,1.8c-0.7-1.2-1.7-2.3-3-3c-1.3-0.7-2.7-1-4.1-1
			c-2.3-0.1-4.6,0.9-6.2,2.6c-1.6,1.9-2.5,4.3-2.4,6.8c-0.1,2.4,0.8,4.7,2.4,6.5c1.6,1.7,3.8,2.6,6.2,2.5c2,0.1,4-0.7,5.5-2
			c1.5-1.3,2.3-3.2,2.4-5.2h-6.3V97.2z"/>
		<path id="Path_5" class="st0" d="M129,108.6v-22h2.6v22H129z"/>
		<path id="Path_6" class="st0" d="M136.9,108.6v-22h11.6V89h-9v6.3h9v2.4h-9v10.8L136.9,108.6z"/>
		<path id="Path_7" class="st0" d="M152.5,108.6v-22h2.6v22H152.5z"/>
		<path id="Path_8" class="st0" d="M160.5,108.6v-22h2.6v19.5h8.3v2.5H160.5z"/>
		<path id="Path_9" class="st0" d="M174.5,108.6v-22H186V89h-9v6.3h9v2.4h-9v8.4h9v2.4L174.5,108.6z"/>
		<path id="Path_10" class="st0" d="M198.5,96.4c1.3,0.5,2.4,1.3,3.2,2.4c0.7,1,1.1,2.3,1.1,3.6c0.1,1.8-0.6,3.6-1.9,4.9
			c-1.4,1.3-3.2,1.9-5.1,1.9c-1.6,0.1-3.1-0.4-4.3-1.3c-1.2-0.9-2.1-2.3-2.4-3.8l2.4-1.2c0.2,1.1,0.8,2.2,1.6,3
			c0.8,0.7,1.7,1.1,2.8,1c1.2,0.1,2.3-0.3,3.2-1.1c0.8-0.8,1.3-1.8,1.2-2.9c0-0.9-0.3-1.8-0.8-2.6c-0.7-0.8-1.6-1.5-2.6-1.8
			l-2.7-1.1c-1.3-0.5-2.4-1.3-3.3-2.4c-0.7-1-1.1-2.2-1.1-3.4c0-1.5,0.6-2.9,1.7-3.9c1.2-1,2.8-1.6,4.4-1.5c1.2,0,2.4,0.3,3.4,0.8
			c1,0.6,1.8,1.5,2.3,2.5l-2.2,1.4c-0.4-0.8-1-1.4-1.7-1.9c-0.6-0.4-1.3-0.6-2.1-0.6c-0.9,0-1.8,0.3-2.4,0.9c-0.6,0.6-1,1.4-0.9,2.3
			c0,0.7,0.2,1.5,0.7,2c0.6,0.7,1.4,1.2,2.2,1.5L198.5,96.4z"/>
	</g>
	<polygon class="st0" points="29.6,29.3 29.5,17.8 29.5,17.8 17,5.9 0.7,5.9 0.7,0.7 19.7,0.7 35,15.6 35,34.3 0.7,34.3 0.7,10.3 
		11.9,10.3 11.9,15.2 5.8,15.2 5.8,29.3 29.5,29.3 	"/>
</g>
</svg>
