<svg id="Twitter" xmlns="http://www.w3.org/2000/svg" width="58" height="58" viewBox="0 0 58 58">
  <g id="Rectangle_80" data-name="Rectangle 80" fill="#fff" stroke="#cbcbcb" stroke-width="1">
    <rect width="58" height="58" rx="29" stroke="none"/>
    <rect x="0.5" y="0.5" width="57" height="57" rx="28.5" fill="none"/>
  </g>
  <path id="Icon_awesome-twitter" data-name="Icon awesome-twitter" d="M27.026,9.478c.019.268.019.535.019.8,0,8.161-6.212,17.565-17.565,17.565A17.446,17.446,0,0,1,0,25.074a12.771,12.771,0,0,0,1.491.076,12.364,12.364,0,0,0,7.664-2.638,6.184,6.184,0,0,1-5.772-4.281,7.785,7.785,0,0,0,1.166.1,6.529,6.529,0,0,0,1.625-.21,6.174,6.174,0,0,1-4.95-6.059v-.076a6.217,6.217,0,0,0,2.79.784A6.183,6.183,0,0,1,2.1,4.508a17.548,17.548,0,0,0,12.729,6.46,6.969,6.969,0,0,1-.153-1.414A6.179,6.179,0,0,1,25.363,5.33a12.154,12.154,0,0,0,3.918-1.491,6.157,6.157,0,0,1-2.714,3.4,12.376,12.376,0,0,0,3.555-.956,13.271,13.271,0,0,1-3.1,3.192Z" transform="translate(14 13.619)" fill="#00a7e6"/>
</svg>
